<svg xmlns="http://www.w3.org/2000/svg" width="78" height="34" viewBox="0 0 78 34" role="img" aria-label="Kick"><rect x="0.5" y="0.5" width="77" height="33" rx="17.0" fill="#1c2125" stroke="rgba(255,255,255,0.06)" stroke-width="1"/><g transform="translate(14,9.50) scale(0.6250)"><path d="M1.333 0h8v5.333H12V2.667h2.667V0h8v8H20v2.667h-2.667v2.666H20V16h2.667v8h-8v-2.667H12v-2.666H9.333V24h-8Z" fill="#53fc18"/></g><g transform="translate(36,21.73)"><path d="M2.180284321308136 -2.327066123485565V-3.933264136314392Q2.4811641573905945 -4.432441592216492 2.7754425704479218 -4.864969819784164Q3.069720983505249 -5.297498047351837 3.405004233121872 -5.723551154136658Q3.740287482738495 -6.149604260921478 4.14831268787384 -6.628721356391907L6.632545292377472 -9.4580078125H8.738676249980927L4.7312726974487305 -4.934675872325897L4.603814363479614 -4.9752994775772095ZM0.9506328105926514 0.0V-9.4580078125H2.6456910371780396V-6.654865145683289L2.615222752094269 -4.37048065662384L2.6456910371780396 -3.5425020456314087V0.0ZM6.804947078227997 0.0 3.794871747493744 -4.44819837808609 4.859233915805817 -5.725840866565704 8.806720614433289 0.0Z M10.175591144561768 0.0V-7.0966796875H11.825453314781189V0.0ZM11.00229975938797 -8.100631415843964Q10.607732329368591 -8.100631415843964 10.324882719516754 -8.36633727642206Q10.042033109664917 -8.632043137000156 10.042033109664917 -9.004031341809492Q10.042033109664917 -9.383611142635345 10.324882719516754 -9.646021485328674Q10.607732329368591 -9.908431828022003 11.00229975938797 -9.908431828022003Q11.400276907171522 -9.908431828022003 11.683452954632894 -9.646266313535826Q11.966629002094269 -9.38410079904965 11.966629002094269 -9.004150778055191Q11.966629002094269 -8.631799757480621 11.683452954632894 -8.366215586662292Q11.400276907171522 -8.100631415843964 11.00229975938797 -8.100631415843964Z M16.815778739452362 0.1432034969329834Q15.782383091449738 0.1432034969329834 15.021300501823426 -0.3149702847003937Q14.260217912197113 -0.7731440663337708 13.84368512749672 -1.5971968472003937Q13.427152342796326 -2.4212496280670166 13.427152342796326 -3.5130465030670166Q13.427152342796326 -4.617031157016754 13.84368512749672 -5.443115234375Q14.260217912197113 -6.269199311733246 15.021300501823426 -6.727373093366623Q15.782383091449738 -7.185546875 16.815778739452362 -7.185546875Q17.409916110038758 -7.185546875 17.91721875190735 -7.031680524349213Q18.42452139377594 -6.877814173698425 18.82505757331848 -6.590520739555359Q19.225593752861023 -6.3032273054122925 19.493972845077515 -5.890250742435455Q19.762351937294007 -5.477274179458618 19.878642208576203 -4.9590537548065186L18.33262527704239 -4.634308218955994Q18.26787871837616 -4.909542500972748 18.135465539693833 -5.132345467805862Q18.003052361011505 -5.355148434638977 17.813129044771195 -5.5153636038303375Q17.623205728530884 -5.675578773021698 17.37577227473259 -5.7607645988464355Q17.128338820934296 -5.845950424671173 16.829489119052887 -5.845950424671173Q16.253370351791382 -5.845950424671173 15.871746189594269 -5.539736837148666Q15.490122027397156 -5.23352324962616 15.298802412748337 -4.708188056945801Q15.107482798099518 -4.182852864265442 15.107482798099518 -3.517616629600525Q15.107482798099518 -2.8627906441688538 15.298802412748337 -2.3372016847133636Q15.490122027397156 -1.8116127252578735 15.871746189594269 -1.5040028393268585Q16.253370351791382 -1.1963929533958435 16.829489119052887 -1.1963929533958435Q17.132401413917542 -1.1963929533958435 17.38389746069908 -1.284752607345581Q17.63539350748062 -1.3731122612953186 17.830521948337555 -1.538532555103302Q18.02565038919449 -1.7039528489112854 18.158063567876816 -1.938308596611023Q18.290476746559143 -2.1726643443107605 18.35293824195862 -2.4583088755607605L19.894892580509186 -2.1358484029769897Q19.782664902210236 -1.602647602558136 19.51225451350212 -1.1833233833312988Q19.241844124794007 -0.7639991641044617 18.84041918039322 -0.4662954807281494Q18.438994235992432 -0.16859179735183716 17.926486469507218 -0.01269415020942688Q17.413978703022003 0.1432034969329834 16.815778739452362 0.1432034969329834Z M22.97988979101181 -2.2364190816879272V-4.234637558460236H23.241918902397156L25.800805430412293 -7.0966796875H27.739612262248993L24.601832966804505 -3.6003957390785217H24.260083894729615ZM21.470688800811768 0.0V-9.4580078125H23.12055097103119V0.0ZM25.919635694026947 0.0 23.59586970090866 -3.232236325740814 24.714568178653717 -4.401713728904724 27.90465364933014 0.0Z" fill="#ffffff"/></g></svg>